<svg xmlns="http://www.w3.org/2000/svg" width="820" height="560" viewBox="0 0 820 560">
<rect width="100%" height="100%" fill="white"/>
<text x="410" y="30" font-family="Arial,sans-serif" font-size="18" text-anchor="middle" font-weight="700" fill="#222">LightGBM Feature Importance (gain)</text>
<text x="410" y="50" font-family="Arial,sans-serif" font-size="12" text-anchor="middle" fill="#666">lgbm_inquiry, trained on all labeled data</text>
<text x="292" y="75.8" font-family="Arial,sans-serif" font-size="11" text-anchor="end" fill="#333">num__issue_pb</text>
<rect x="300" y="62.2" width="0.2" height="18.0" fill="#F58518" fill-opacity="0.85"/>
<text x="292" y="98.2" font-family="Arial,sans-serif" font-size="11" text-anchor="end" fill="#333">num__subscription_lower_limit_10k</text>
<rect x="300" y="84.8" width="0.2" height="18.0" fill="#F58518" fill-opacity="0.85"/>
<text x="292" y="120.8" font-family="Arial,sans-serif" font-size="11" text-anchor="end" fill="#333">num__ipo_pe_diluted</text>
<rect x="300" y="107.2" width="0.3" height="18.0" fill="#F58518" fill-opacity="0.85"/>
<text x="292" y="143.2" font-family="Arial,sans-serif" font-size="11" text-anchor="end" fill="#333">num__offer_price_yuan</text>
<rect x="300" y="129.8" width="0.3" height="18.0" fill="#F58518" fill-opacity="0.85"/>
<text x="292" y="165.8" font-family="Arial,sans-serif" font-size="11" text-anchor="end" fill="#333">num__strategic_allocation_share_pct</text>
<rect x="300" y="152.2" width="0.3" height="18.0" fill="#F58518" fill-opacity="0.85"/>
<text x="292" y="188.2" font-family="Arial,sans-serif" font-size="11" text-anchor="end" fill="#333">num__recent_ipo_first_day_return_ma20</text>
<rect x="300" y="174.8" width="0.8" height="18.0" fill="#F58518" fill-opacity="0.85"/>
<text x="292" y="210.8" font-family="Arial,sans-serif" font-size="11" text-anchor="end" fill="#333">cat__board_创业板</text>
<rect x="300" y="197.2" width="0.8" height="18.0" fill="#F58518" fill-opacity="0.85"/>
<text x="292" y="233.2" font-family="Arial,sans-serif" font-size="11" text-anchor="end" fill="#333">num__subscription_upper_limit_10k</text>
<rect x="300" y="219.8" width="1.0" height="18.0" fill="#F58518" fill-opacity="0.85"/>
<text x="292" y="255.8" font-family="Arial,sans-serif" font-size="11" text-anchor="end" fill="#333">num__offline_issue_before_share_pct</text>
<rect x="300" y="242.2" width="1.1" height="18.0" fill="#F58518" fill-opacity="0.85"/>
<text x="292" y="278.2" font-family="Arial,sans-serif" font-size="11" text-anchor="end" fill="#333">num__quote_price_vs_offer</text>
<rect x="300" y="264.8" width="1.1" height="18.0" fill="#F58518" fill-opacity="0.85"/>
<text x="292" y="300.8" font-family="Arial,sans-serif" font-size="11" text-anchor="end" fill="#333">cat__board_科创板</text>
<rect x="300" y="287.2" width="1.3" height="18.0" fill="#F58518" fill-opacity="0.85"/>
<text x="292" y="323.2" font-family="Arial,sans-serif" font-size="11" text-anchor="end" fill="#333">num__high_price_excluded_subscription_share_pct</text>
<rect x="300" y="309.8" width="1.6" height="18.0" fill="#F58518" fill-opacity="0.85"/>
<text x="292" y="345.8" font-family="Arial,sans-serif" font-size="11" text-anchor="end" fill="#333">num__inquiry_subscription_total_10k</text>
<rect x="300" y="332.2" width="4.1" height="18.0" fill="#F58518" fill-opacity="0.85"/>
<text x="292" y="368.2" font-family="Arial,sans-serif" font-size="11" text-anchor="end" fill="#333">cat__board_主板</text>
<rect x="300" y="354.8" width="5.8" height="18.0" fill="#F58518" fill-opacity="0.85"/>
<text x="292" y="390.8" font-family="Arial,sans-serif" font-size="11" text-anchor="end" fill="#333">num__issue_amount_100m_yuan</text>
<rect x="300" y="377.2" width="6.5" height="18.0" fill="#F58518" fill-opacity="0.85"/>
<text x="292" y="413.2" font-family="Arial,sans-serif" font-size="11" text-anchor="end" fill="#333">num__subscription_step_10k</text>
<rect x="300" y="399.8" width="13.2" height="18.0" fill="#F58518" fill-opacity="0.85"/>
<text x="292" y="435.8" font-family="Arial,sans-serif" font-size="11" text-anchor="end" fill="#333">num__excluded_subscription_share_pct</text>
<rect x="300" y="422.2" width="19.1" height="18.0" fill="#F58518" fill-opacity="0.85"/>
<text x="292" y="458.2" font-family="Arial,sans-serif" font-size="11" text-anchor="end" fill="#333">num__inquiry_investors_count</text>
<rect x="300" y="444.8" width="37.8" height="18.0" fill="#F58518" fill-opacity="0.85"/>
<text x="292" y="480.8" font-family="Arial,sans-serif" font-size="11" text-anchor="end" fill="#333">num__inquiry_allotment_accounts</text>
<rect x="300" y="467.2" width="151.0" height="18.0" fill="#F58518" fill-opacity="0.85"/>
<text x="292" y="503.2" font-family="Arial,sans-serif" font-size="11" text-anchor="end" fill="#333">num__inquiry_oversubscription_ratio</text>
<rect x="300" y="489.8" width="427.3" height="18.0" fill="#F58518" fill-opacity="0.85"/>
</svg>