<svg xmlns="http://www.w3.org/2000/svg" width="860" height="560">
<rect width="100%" height="100%" fill="white"/>
<text x="430" y="30" font-family="Arial,sans-serif" font-size="17" text-anchor="middle" font-weight="700" fill="#222">Feature Importance — lgbm_t6</text>
<text x="430" y="50" font-family="Arial,sans-serif" font-size="11" text-anchor="middle" fill="#666">gain; colour = information node</text>
<text x="312" y="81" font-family="Arial,sans-serif" font-size="11" text-anchor="end" fill="#333">cat__board_创业板</text>
<rect x="320" y="63" width="6" height="22" fill="#4C78A8" fill-opacity="0.85"/>
<text x="312" y="109" font-family="Arial,sans-serif" font-size="11" text-anchor="end" fill="#333">num__comparable_pe_avg_ex_nonrecurring</text>
<rect x="320" y="91" width="6" height="22" fill="#4C78A8" fill-opacity="0.85"/>
<text x="312" y="137" font-family="Arial,sans-serif" font-size="11" text-anchor="end" fill="#333">num__strategic_allocation_10k</text>
<rect x="320" y="119" width="8" height="22" fill="#4C78A8" fill-opacity="0.85"/>
<text x="312" y="165" font-family="Arial,sans-serif" font-size="11" text-anchor="end" fill="#333">num__industry_pe_at_ipo</text>
<rect x="320" y="147" width="14" height="22" fill="#4C78A8" fill-opacity="0.85"/>
<text x="312" y="194" font-family="Arial,sans-serif" font-size="11" text-anchor="end" fill="#333">num__online_issue_before_clawback_10k</text>
<rect x="320" y="175" width="15" height="22" fill="#4C78A8" fill-opacity="0.85"/>
<text x="312" y="222" font-family="Arial,sans-serif" font-size="11" text-anchor="end" fill="#333">num__subscription_lower_limit_10k</text>
<rect x="320" y="203" width="16" height="22" fill="#4C78A8" fill-opacity="0.85"/>
<text x="312" y="250" font-family="Arial,sans-serif" font-size="11" text-anchor="end" fill="#333">cat__board_科创板</text>
<rect x="320" y="232" width="18" height="22" fill="#4C78A8" fill-opacity="0.85"/>
<text x="312" y="278" font-family="Arial,sans-serif" font-size="11" text-anchor="end" fill="#333">num__total_issue_shares_10k</text>
<rect x="320" y="260" width="19" height="22" fill="#4C78A8" fill-opacity="0.85"/>
<text x="312" y="306" font-family="Arial,sans-serif" font-size="11" text-anchor="end" fill="#333">num__strategic_allocation_share_pct</text>
<rect x="320" y="288" width="22" height="22" fill="#4C78A8" fill-opacity="0.85"/>
<text x="312" y="334" font-family="Arial,sans-serif" font-size="11" text-anchor="end" fill="#333">num__offline_issue_before_share_pct</text>
<rect x="320" y="316" width="22" height="22" fill="#4C78A8" fill-opacity="0.85"/>
<text x="312" y="362" font-family="Arial,sans-serif" font-size="11" text-anchor="end" fill="#333">num__offline_issue_before_clawback_10k</text>
<rect x="320" y="344" width="29" height="22" fill="#4C78A8" fill-opacity="0.85"/>
<text x="312" y="390" font-family="Arial,sans-serif" font-size="11" text-anchor="end" fill="#333">num__recent_ipo_first_day_return_ma20</text>
<rect x="320" y="372" width="31" height="22" fill="#4C78A8" fill-opacity="0.85"/>
<text x="312" y="419" font-family="Arial,sans-serif" font-size="11" text-anchor="end" fill="#333">cat__board_主板</text>
<rect x="320" y="400" width="49" height="22" fill="#4C78A8" fill-opacity="0.85"/>
<text x="312" y="447" font-family="Arial,sans-serif" font-size="11" text-anchor="end" fill="#333">num__subscription_upper_limit_10k</text>
<rect x="320" y="428" width="79" height="22" fill="#4C78A8" fill-opacity="0.85"/>
<text x="312" y="475" font-family="Arial,sans-serif" font-size="11" text-anchor="end" fill="#333">cat__board_北交所</text>
<rect x="320" y="457" width="115" height="22" fill="#4C78A8" fill-opacity="0.85"/>
<text x="312" y="503" font-family="Arial,sans-serif" font-size="11" text-anchor="end" fill="#333">num__subscription_step_10k</text>
<rect x="320" y="485" width="436" height="22" fill="#4C78A8" fill-opacity="0.85"/>
<rect x="740" y="60" width="14" height="14" fill="#4C78A8"/>
<text x="758" y="71" font-family="Arial,sans-serif" font-size="12" fill="#333">T-6</text>
<rect x="740" y="82" width="14" height="14" fill="#54A24B"/>
<text x="758" y="93" font-family="Arial,sans-serif" font-size="12" fill="#333">T-1</text>
<rect x="740" y="104" width="14" height="14" fill="#F58518"/>
<text x="758" y="115" font-family="Arial,sans-serif" font-size="12" fill="#333">T+1</text>
</svg>