<svg xmlns="http://www.w3.org/2000/svg" width="720" height="280" viewBox="0 0 720 280">
<rect width="100%" height="100%" fill="white"/>
<text x="360" y="30" font-family="Arial,sans-serif" font-size="18" text-anchor="middle" font-weight="700" fill="#222">Model comparison — SPEARMAN</text>
<text x="360" y="50" font-family="Arial,sans-serif" font-size="12" text-anchor="middle" fill="#666">OOS backtest, all boards</text>
<line x1="220.0" y1="70" x2="220.0" y2="230" stroke="#e6e6e6"/>
<text x="220.0" y="248" font-family="Arial,sans-serif" font-size="11" text-anchor="middle" fill="#666">0.00</text>
<line x1="330.0" y1="70" x2="330.0" y2="230" stroke="#e6e6e6"/>
<text x="330.0" y="248" font-family="Arial,sans-serif" font-size="11" text-anchor="middle" fill="#666">0.27</text>
<line x1="440.0" y1="70" x2="440.0" y2="230" stroke="#e6e6e6"/>
<text x="440.0" y="248" font-family="Arial,sans-serif" font-size="11" text-anchor="middle" fill="#666">0.55</text>
<line x1="550.0" y1="70" x2="550.0" y2="230" stroke="#e6e6e6"/>
<text x="550.0" y="248" font-family="Arial,sans-serif" font-size="11" text-anchor="middle" fill="#666">0.82</text>
<line x1="660.0" y1="70" x2="660.0" y2="230" stroke="#e6e6e6"/>
<text x="660.0" y="248" font-family="Arial,sans-serif" font-size="11" text-anchor="middle" fill="#666">1.10</text>
<text x="212" y="92.4" font-family="Arial,sans-serif" font-size="12" text-anchor="end" fill="#333">lgbm_inquiry</text>
<rect x="220" y="74.8" width="382.6" height="22.4" fill="#4C78A8" fill-opacity="0.8"/>
<text x="608.6" y="92.4" font-family="Arial,sans-serif" font-size="11" fill="#333">0.9536</text>
<text x="212" y="124.4" font-family="Arial,sans-serif" font-size="12" text-anchor="end" fill="#333">ridge_inquiry</text>
<rect x="220" y="106.8" width="302.9" height="22.4" fill="#4C78A8" fill-opacity="0.8"/>
<text x="528.9" y="124.4" font-family="Arial,sans-serif" font-size="11" fill="#333">0.7551</text>
<text x="212" y="156.4" font-family="Arial,sans-serif" font-size="12" text-anchor="end" fill="#333">ridge_basic</text>
<rect x="220" y="138.8" width="216.5" height="22.4" fill="#4C78A8" fill-opacity="0.8"/>
<text x="442.5" y="156.4" font-family="Arial,sans-serif" font-size="11" fill="#333">0.5396</text>
<text x="212" y="188.4" font-family="Arial,sans-serif" font-size="12" text-anchor="end" fill="#333">board_recent_mean</text>
<rect x="220" y="170.8" width="120.2" height="22.4" fill="#4C78A8" fill-opacity="0.8"/>
<text x="346.2" y="188.4" font-family="Arial,sans-serif" font-size="11" fill="#333">0.2996</text>
<text x="212" y="220.4" font-family="Arial,sans-serif" font-size="12" text-anchor="end" fill="#333">board_mean</text>
<rect x="220" y="202.8" width="108.3" height="22.4" fill="#4C78A8" fill-opacity="0.8"/>
<text x="334.3" y="220.4" font-family="Arial,sans-serif" font-size="11" fill="#333">0.2700</text>
</svg>