<svg xmlns="http://www.w3.org/2000/svg" width="800" height="320">
<rect width="100%" height="100%" fill="white"/>
<text x="400" y="30" font-family="Arial,sans-serif" font-size="18" text-anchor="middle" font-weight="700" fill="#222">三阶段模型 Spearman 比较（OOS）</text>
<text x="400" y="52" font-family="Arial,sans-serif" font-size="12" text-anchor="middle" fill="#666">expanding-window backtest — 按申购截止日排序</text>
<line x1="240" y1="70" x2="240" y2="270" stroke="#e6e6e6"/>
<text x="240" y="288" font-family="Arial,sans-serif" font-size="11" text-anchor="middle" fill="#666">0.00</text>
<line x1="360" y1="70" x2="360" y2="270" stroke="#e6e6e6"/>
<text x="360" y="288" font-family="Arial,sans-serif" font-size="11" text-anchor="middle" fill="#666">0.25</text>
<line x1="480" y1="70" x2="480" y2="270" stroke="#e6e6e6"/>
<text x="480" y="288" font-family="Arial,sans-serif" font-size="11" text-anchor="middle" fill="#666">0.50</text>
<line x1="600" y1="70" x2="600" y2="270" stroke="#e6e6e6"/>
<text x="600" y="288" font-family="Arial,sans-serif" font-size="11" text-anchor="middle" fill="#666">0.75</text>
<line x1="720" y1="70" x2="720" y2="270" stroke="#e6e6e6"/>
<text x="720" y="288" font-family="Arial,sans-serif" font-size="11" text-anchor="middle" fill="#666">1.00</text>
<text x="232" y="99" font-family="Arial,sans-serif" font-size="12" text-anchor="end" fill="#333">ridge_t1  [T1]</text>
<rect x="240" y="74" width="353" height="31" fill="#54A24B" fill-opacity="0.85"/>
<text x="599" y="99" font-family="Arial,sans-serif" font-size="11" fill="#333">0.7364</text>
<text x="232" y="139" font-family="Arial,sans-serif" font-size="12" text-anchor="end" fill="#333">lgbm_t1  [T1]</text>
<rect x="240" y="114" width="457" height="31" fill="#54A24B" fill-opacity="0.85"/>
<text x="703" y="139" font-family="Arial,sans-serif" font-size="11" fill="#333">0.9531</text>
<text x="232" y="179" font-family="Arial,sans-serif" font-size="12" text-anchor="end" fill="#333">lgbm_t1plus  [T1PLUS]</text>
<rect x="240" y="154" width="466" height="31" fill="#F58518" fill-opacity="0.85"/>
<text x="712" y="179" font-family="Arial,sans-serif" font-size="11" fill="#333">0.9700</text>
<text x="232" y="219" font-family="Arial,sans-serif" font-size="12" text-anchor="end" fill="#333">board_mean_t6  [T6]</text>
<rect x="240" y="194" width="130" height="31" fill="#4C78A8" fill-opacity="0.85"/>
<text x="376" y="219" font-family="Arial,sans-serif" font-size="11" fill="#333">0.2700</text>
<text x="232" y="259" font-family="Arial,sans-serif" font-size="12" text-anchor="end" fill="#333">lgbm_t6  [T6]</text>
<rect x="240" y="234" width="246" height="31" fill="#4C78A8" fill-opacity="0.85"/>
<text x="492" y="259" font-family="Arial,sans-serif" font-size="11" fill="#333">0.5117</text>
<rect x="660" y="70" width="14" height="14" fill="#4C78A8"/>
<text x="678" y="81" font-family="Arial,sans-serif" font-size="12" fill="#333">T6</text>
<rect x="660" y="92" width="14" height="14" fill="#54A24B"/>
<text x="678" y="103" font-family="Arial,sans-serif" font-size="12" fill="#333">T1</text>
<rect x="660" y="114" width="14" height="14" fill="#F58518"/>
<text x="678" y="125" font-family="Arial,sans-serif" font-size="12" fill="#333">T1PLUS</text>
</svg>