<svg xmlns="http://www.w3.org/2000/svg" width="720" height="420">
<rect width="100%" height="100%" fill="white"/>
<text x="360" y="28" font-family="Arial,sans-serif" font-size="17" font-weight="700" text-anchor="middle" fill="#222">分板块专项模型 vs 全局模型 (OOS Spearman, T-1)</text>
<text x="360" y="48" font-family="Arial,sans-serif" font-size="12" text-anchor="middle" fill="#666">expanding-window backtest · lgbm_t1</text>
<line x1="70" y1="290" x2="670" y2="290" stroke="#e0e0e0" stroke-dasharray="4,3"/>
<text x="64" y="294" font-family="Arial,sans-serif" font-size="11" text-anchor="end" fill="#aaa">0.25</text>
<line x1="70" y1="220" x2="670" y2="220" stroke="#e0e0e0" stroke-dasharray="4,3"/>
<text x="64" y="224" font-family="Arial,sans-serif" font-size="11" text-anchor="end" fill="#aaa">0.50</text>
<line x1="70" y1="150" x2="670" y2="150" stroke="#e0e0e0" stroke-dasharray="4,3"/>
<text x="64" y="154" font-family="Arial,sans-serif" font-size="11" text-anchor="end" fill="#aaa">0.75</text>
<line x1="70" y1="80" x2="670" y2="80" stroke="#e0e0e0" stroke-dasharray="4,3"/>
<text x="64" y="84" font-family="Arial,sans-serif" font-size="11" text-anchor="end" fill="#aaa">1.00</text>
<rect x="96" y="84" width="72" height="276" fill="#4C78A8" fill-opacity="0.82"/>
<text x="132" y="79" font-family="Arial,sans-serif" font-size="10" text-anchor="middle" fill="#4C78A8">0.984</text>
<rect x="172" y="84" width="72" height="276" fill="#54A24B" fill-opacity="0.82"/>
<text x="208" y="79" font-family="Arial,sans-serif" font-size="10" text-anchor="middle" fill="#54A24B">0.986</text>
<text x="170" y="68" font-family="Arial,sans-serif" font-size="10" text-anchor="middle" fill="#2d8a2d">+0.001</text>
<text x="170" y="380" font-family="Arial,sans-serif" font-size="13" text-anchor="middle" fill="#333">科创板</text>
<rect x="296" y="86" width="72" height="274" fill="#4C78A8" fill-opacity="0.82"/>
<text x="332" y="81" font-family="Arial,sans-serif" font-size="10" text-anchor="middle" fill="#4C78A8">0.979</text>
<rect x="372" y="91" width="72" height="269" fill="#e45c5c" fill-opacity="0.82"/>
<text x="408" y="86" font-family="Arial,sans-serif" font-size="10" text-anchor="middle" fill="#e45c5c">0.962</text>
<text x="370" y="70" font-family="Arial,sans-serif" font-size="10" text-anchor="middle" fill="#c02020">-0.017</text>
<text x="370" y="380" font-family="Arial,sans-serif" font-size="13" text-anchor="middle" fill="#333">创业板</text>
<rect x="496" y="125" width="72" height="235" fill="#4C78A8" fill-opacity="0.82"/>
<text x="532" y="120" font-family="Arial,sans-serif" font-size="10" text-anchor="middle" fill="#4C78A8">0.839</text>
<rect x="572" y="189" width="72" height="171" fill="#e45c5c" fill-opacity="0.82"/>
<text x="608" y="184" font-family="Arial,sans-serif" font-size="10" text-anchor="middle" fill="#e45c5c">0.611</text>
<text x="570" y="109" font-family="Arial,sans-serif" font-size="10" text-anchor="middle" fill="#c02020">-0.228</text>
<text x="570" y="380" font-family="Arial,sans-serif" font-size="13" text-anchor="middle" fill="#333">主板</text>
<rect x="560" y="80" width="13" height="13" fill="#4C78A8" fill-opacity="0.82"/>
<text x="577" y="91" font-family="Arial,sans-serif" font-size="12" fill="#333">全局 lgbm_t1</text>
<rect x="560" y="102" width="13" height="13" fill="#54A24B" fill-opacity="0.82"/>
<text x="577" y="113" font-family="Arial,sans-serif" font-size="12" fill="#333">板块专项模型</text>
</svg>