<svg xmlns="http://www.w3.org/2000/svg" width="900" height="520" viewBox="0 0 900 520">
<rect width="100%" height="100%" fill="white"/>
<text x="450.0" y="32.0" font-family="Arial, sans-serif" font-size="20" text-anchor="middle" font-weight="700" fill="#222">Label Distribution by Board</text>
<text x="450.0" y="55.0" font-family="Arial, sans-serif" font-size="12" text-anchor="middle" font-weight="400" fill="#222">log(offline oversubscription), whiskers = p01 / p99</text>
<line x1="90" y1="435" x2="860" y2="435" stroke="#333"/>
<line x1="90" y1="70" x2="90" y2="435" stroke="#333"/>
<line x1="90" y1="435.0" x2="860" y2="435.0" stroke="#ddd"/>
<text x="80.0" y="439.0" font-family="Arial, sans-serif" font-size="11" text-anchor="end" font-weight="400" fill="#222">5.5</text>
<line x1="90" y1="362.0" x2="860" y2="362.0" stroke="#ddd"/>
<text x="80.0" y="366.0" font-family="Arial, sans-serif" font-size="11" text-anchor="end" font-weight="400" fill="#222">6.3</text>
<line x1="90" y1="289.0" x2="860" y2="289.0" stroke="#ddd"/>
<text x="80.0" y="293.0" font-family="Arial, sans-serif" font-size="11" text-anchor="end" font-weight="400" fill="#222">7.1</text>
<line x1="90" y1="216.0" x2="860" y2="216.0" stroke="#ddd"/>
<text x="80.0" y="220.0" font-family="Arial, sans-serif" font-size="11" text-anchor="end" font-weight="400" fill="#222">7.9</text>
<line x1="90" y1="143.0" x2="860" y2="143.0" stroke="#ddd"/>
<text x="80.0" y="147.0" font-family="Arial, sans-serif" font-size="11" text-anchor="end" font-weight="400" fill="#222">8.7</text>
<line x1="90" y1="70.0" x2="860" y2="70.0" stroke="#ddd"/>
<text x="80.0" y="74.0" font-family="Arial, sans-serif" font-size="11" text-anchor="end" font-weight="400" fill="#222">9.5</text>
<line x1="210.0" y1="435.0" x2="210.0" y2="147.8" stroke="#4C78A8" stroke-width="2"/>
<line x1="180.0" y1="435.0" x2="240.0" y2="435.0" stroke="#4C78A8" stroke-width="2"/>
<line x1="180.0" y1="147.8" x2="240.0" y2="147.8" stroke="#4C78A8" stroke-width="2"/>
<rect x="165.0" y="188.3" width="90" height="72.0" fill="#4C78A8" fill-opacity="0.25" stroke="#4C78A8" stroke-width="2"/>
<line x1="165.0" y1="221.7" x2="255.0" y2="221.7" stroke="#4C78A8" stroke-width="3"/>
<text x="210.0" y="463.0" font-family="Arial, sans-serif" font-size="13" text-anchor="middle" font-weight="700" fill="#222">科创板</text>
<text x="210.0" y="482.0" font-family="Arial, sans-serif" font-size="11" text-anchor="middle" font-weight="400" fill="#222">n=608</text>
<line x1="475.0" y1="309.1" x2="475.0" y2="146.7" stroke="#F58518" stroke-width="2"/>
<line x1="445.0" y1="309.1" x2="505.0" y2="309.1" stroke="#F58518" stroke-width="2"/>
<line x1="445.0" y1="146.7" x2="505.0" y2="146.7" stroke="#F58518" stroke-width="2"/>
<rect x="430.0" y="181.5" width="90" height="37.6" fill="#F58518" fill-opacity="0.25" stroke="#F58518" stroke-width="2"/>
<line x1="430.0" y1="197.8" x2="520.0" y2="197.8" stroke="#F58518" stroke-width="3"/>
<text x="475.0" y="463.0" font-family="Arial, sans-serif" font-size="13" text-anchor="middle" font-weight="700" fill="#222">创业板</text>
<text x="475.0" y="482.0" font-family="Arial, sans-serif" font-size="11" text-anchor="middle" font-weight="400" fill="#222">n=481</text>
<line x1="740.0" y1="307.6" x2="740.0" y2="70.0" stroke="#54A24B" stroke-width="2"/>
<line x1="710.0" y1="307.6" x2="770.0" y2="307.6" stroke="#54A24B" stroke-width="2"/>
<line x1="710.0" y1="70.0" x2="770.0" y2="70.0" stroke="#54A24B" stroke-width="2"/>
<rect x="695.0" y="98.7" width="90" height="33.9" fill="#54A24B" fill-opacity="0.25" stroke="#54A24B" stroke-width="2"/>
<line x1="695.0" y1="111.4" x2="785.0" y2="111.4" stroke="#54A24B" stroke-width="3"/>
<text x="740.0" y="463.0" font-family="Arial, sans-serif" font-size="13" text-anchor="middle" font-weight="700" fill="#222">主板</text>
<text x="740.0" y="482.0" font-family="Arial, sans-serif" font-size="11" text-anchor="middle" font-weight="400" fill="#222">n=105</text>
<text x="22.0" y="252.5" font-family="Arial, sans-serif" font-size="12" text-anchor="middle" font-weight="400" fill="#222">log oversubscription</text>
</svg>