<svg xmlns="http://www.w3.org/2000/svg" width="960" height="520" viewBox="0 0 960 520">
<rect width="100%" height="100%" fill="white"/>
<text x="480.0" y="32.0" font-family="Arial, sans-serif" font-size="20" text-anchor="middle" font-weight="700" fill="#222">Label Distribution by Board (v2)</text>
<text x="480.0" y="55.0" font-family="Arial, sans-serif" font-size="12" text-anchor="middle" font-weight="400" fill="#222">log(offline oversubscription), whiskers = p05 / p95</text>
<line x1="90" y1="435" x2="920" y2="435" stroke="#333"/>
<line x1="90" y1="70" x2="90" y2="435" stroke="#333"/>
<line x1="90" y1="435.0" x2="920" y2="435.0" stroke="#ddd"/>
<text x="80.0" y="439.0" font-family="Arial, sans-serif" font-size="11" text-anchor="end" font-weight="400" fill="#222">1.7</text>
<line x1="90" y1="362.0" x2="920" y2="362.0" stroke="#ddd"/>
<text x="80.0" y="366.0" font-family="Arial, sans-serif" font-size="11" text-anchor="end" font-weight="400" fill="#222">3.2</text>
<line x1="90" y1="289.0" x2="920" y2="289.0" stroke="#ddd"/>
<text x="80.0" y="293.0" font-family="Arial, sans-serif" font-size="11" text-anchor="end" font-weight="400" fill="#222">4.8</text>
<line x1="90" y1="216.0" x2="920" y2="216.0" stroke="#ddd"/>
<text x="80.0" y="220.0" font-family="Arial, sans-serif" font-size="11" text-anchor="end" font-weight="400" fill="#222">6.3</text>
<line x1="90" y1="143.0" x2="920" y2="143.0" stroke="#ddd"/>
<text x="80.0" y="147.0" font-family="Arial, sans-serif" font-size="11" text-anchor="end" font-weight="400" fill="#222">7.9</text>
<line x1="90" y1="70.0" x2="920" y2="70.0" stroke="#ddd"/>
<text x="80.0" y="74.0" font-family="Arial, sans-serif" font-size="11" text-anchor="end" font-weight="400" fill="#222">9.4</text>
<line x1="210.0" y1="231.9" x2="210.0" y2="110.0" stroke="#4C78A8" stroke-width="2"/>
<line x1="183.3" y1="231.9" x2="236.7" y2="231.9" stroke="#4C78A8" stroke-width="2"/>
<line x1="183.3" y1="110.0" x2="236.7" y2="110.0" stroke="#4C78A8" stroke-width="2"/>
<rect x="170.0" y="126.1" width="80" height="37.0" fill="#4C78A8" fill-opacity="0.25" stroke="#4C78A8" stroke-width="2"/>
<line x1="170.0" y1="143.2" x2="250.0" y2="143.2" stroke="#4C78A8" stroke-width="3"/>
<text x="210.0" y="463.0" font-family="Arial, sans-serif" font-size="13" text-anchor="middle" font-weight="700" fill="#222">科创板</text>
<text x="210.0" y="482.0" font-family="Arial, sans-serif" font-size="11" text-anchor="middle" font-weight="400" fill="#222">n=608</text>
<line x1="406.7" y1="161.1" x2="406.7" y2="108.7" stroke="#F58518" stroke-width="2"/>
<line x1="380.0" y1="161.1" x2="433.3" y2="161.1" stroke="#F58518" stroke-width="2"/>
<line x1="380.0" y1="108.7" x2="433.3" y2="108.7" stroke="#F58518" stroke-width="2"/>
<rect x="366.7" y="122.6" width="80" height="19.3" fill="#F58518" fill-opacity="0.25" stroke="#F58518" stroke-width="2"/>
<line x1="366.7" y1="131.0" x2="446.7" y2="131.0" stroke="#F58518" stroke-width="3"/>
<text x="406.7" y="463.0" font-family="Arial, sans-serif" font-size="13" text-anchor="middle" font-weight="700" fill="#222">创业板</text>
<text x="406.7" y="482.0" font-family="Arial, sans-serif" font-size="11" text-anchor="middle" font-weight="400" fill="#222">n=481</text>
<line x1="603.3" y1="120.6" x2="603.3" y2="70.0" stroke="#54A24B" stroke-width="2"/>
<line x1="576.7" y1="120.6" x2="630.0" y2="120.6" stroke="#54A24B" stroke-width="2"/>
<line x1="576.7" y1="70.0" x2="630.0" y2="70.0" stroke="#54A24B" stroke-width="2"/>
<rect x="563.3" y="80.1" width="80" height="17.4" fill="#54A24B" fill-opacity="0.25" stroke="#54A24B" stroke-width="2"/>
<line x1="563.3" y1="86.6" x2="643.3" y2="86.6" stroke="#54A24B" stroke-width="3"/>
<text x="603.3" y="463.0" font-family="Arial, sans-serif" font-size="13" text-anchor="middle" font-weight="700" fill="#222">主板</text>
<text x="603.3" y="482.0" font-family="Arial, sans-serif" font-size="11" text-anchor="middle" font-weight="400" fill="#222">n=105</text>
<line x1="800.0" y1="435.0" x2="800.0" y2="326.4" stroke="#B279A2" stroke-width="2"/>
<line x1="773.3" y1="435.0" x2="826.7" y2="435.0" stroke="#B279A2" stroke-width="2"/>
<line x1="773.3" y1="326.4" x2="826.7" y2="326.4" stroke="#B279A2" stroke-width="2"/>
<rect x="760.0" y="347.9" width="80" height="49.6" fill="#B279A2" fill-opacity="0.25" stroke="#B279A2" stroke-width="2"/>
<line x1="760.0" y1="369.8" x2="840.0" y2="369.8" stroke="#B279A2" stroke-width="3"/>
<text x="800.0" y="463.0" font-family="Arial, sans-serif" font-size="13" text-anchor="middle" font-weight="700" fill="#222">北交所</text>
<text x="800.0" y="482.0" font-family="Arial, sans-serif" font-size="11" text-anchor="middle" font-weight="400" fill="#222">n=41</text>
<text x="22.0" y="252.5" font-family="Arial, sans-serif" font-size="12" text-anchor="middle" font-weight="400" fill="#222">log oversubscription</text>
</svg>