<svg xmlns="http://www.w3.org/2000/svg" width="980" height="560" viewBox="0 0 980 560">
<rect width="100%" height="100%" fill="white"/>
<text x="490.0" y="32.0" font-family="Arial, sans-serif" font-size="20" text-anchor="middle" font-weight="700" fill="#222">Median Offline Oversubscription by Listing Year (v2)</text>
<line x1="90" y1="475" x2="800" y2="475" stroke="#333"/>
<line x1="90" y1="70" x2="90" y2="475" stroke="#333"/>
<line x1="90.0" y1="475" x2="90.0" y2="480" stroke="#333"/>
<text x="90.0" y="499.0" font-family="Arial, sans-serif" font-size="11" text-anchor="middle" font-weight="400" fill="#222">2019</text>
<line x1="191.4" y1="475" x2="191.4" y2="480" stroke="#333"/>
<text x="191.4" y="499.0" font-family="Arial, sans-serif" font-size="11" text-anchor="middle" font-weight="400" fill="#222">2020</text>
<line x1="292.9" y1="475" x2="292.9" y2="480" stroke="#333"/>
<text x="292.9" y="499.0" font-family="Arial, sans-serif" font-size="11" text-anchor="middle" font-weight="400" fill="#222">2021</text>
<line x1="394.3" y1="475" x2="394.3" y2="480" stroke="#333"/>
<text x="394.3" y="499.0" font-family="Arial, sans-serif" font-size="11" text-anchor="middle" font-weight="400" fill="#222">2022</text>
<line x1="495.7" y1="475" x2="495.7" y2="480" stroke="#333"/>
<text x="495.7" y="499.0" font-family="Arial, sans-serif" font-size="11" text-anchor="middle" font-weight="400" fill="#222">2023</text>
<line x1="597.1" y1="475" x2="597.1" y2="480" stroke="#333"/>
<text x="597.1" y="499.0" font-family="Arial, sans-serif" font-size="11" text-anchor="middle" font-weight="400" fill="#222">2024</text>
<line x1="698.6" y1="475" x2="698.6" y2="480" stroke="#333"/>
<text x="698.6" y="499.0" font-family="Arial, sans-serif" font-size="11" text-anchor="middle" font-weight="400" fill="#222">2025</text>
<line x1="800.0" y1="475" x2="800.0" y2="480" stroke="#333"/>
<text x="800.0" y="499.0" font-family="Arial, sans-serif" font-size="11" text-anchor="middle" font-weight="400" fill="#222">2026</text>
<line x1="90" y1="475.0" x2="800" y2="475.0" stroke="#ddd"/>
<text x="80.0" y="479.0" font-family="Arial, sans-serif" font-size="11" text-anchor="end" font-weight="400" fill="#222">0</text>
<line x1="90" y1="394.0" x2="800" y2="394.0" stroke="#ddd"/>
<text x="80.0" y="398.0" font-family="Arial, sans-serif" font-size="11" text-anchor="end" font-weight="400" fill="#222">2,656</text>
<line x1="90" y1="313.0" x2="800" y2="313.0" stroke="#ddd"/>
<text x="80.0" y="317.0" font-family="Arial, sans-serif" font-size="11" text-anchor="end" font-weight="400" fill="#222">5,312</text>
<line x1="90" y1="232.0" x2="800" y2="232.0" stroke="#ddd"/>
<text x="80.0" y="236.0" font-family="Arial, sans-serif" font-size="11" text-anchor="end" font-weight="400" fill="#222">7,967</text>
<line x1="90" y1="151.0" x2="800" y2="151.0" stroke="#ddd"/>
<text x="80.0" y="155.0" font-family="Arial, sans-serif" font-size="11" text-anchor="end" font-weight="400" fill="#222">10,623</text>
<line x1="90" y1="70.0" x2="800" y2="70.0" stroke="#ddd"/>
<text x="80.0" y="74.0" font-family="Arial, sans-serif" font-size="11" text-anchor="end" font-weight="400" fill="#222">13,279</text>
<polyline points="90.0,459.8 191.4,409.3 292.9,338.0 394.3,400.2 495.7,382.7 597.1,397.5 698.6,398.6 800.0,353.3" fill="none" stroke="#4C78A8" stroke-width="3"/>
<circle cx="90.0" cy="459.8" r="4" fill="#4C78A8"/>
<circle cx="191.4" cy="409.3" r="4" fill="#4C78A8"/>
<circle cx="292.9" cy="338.0" r="4" fill="#4C78A8"/>
<circle cx="394.3" cy="400.2" r="4" fill="#4C78A8"/>
<circle cx="495.7" cy="382.7" r="4" fill="#4C78A8"/>
<circle cx="597.1" cy="397.5" r="4" fill="#4C78A8"/>
<circle cx="698.6" cy="398.6" r="4" fill="#4C78A8"/>
<circle cx="800.0" cy="353.3" r="4" fill="#4C78A8"/>
<polyline points="191.4,398.8 292.9,344.0 394.3,386.8 495.7,379.7 597.1,371.4 698.6,350.2 800.0,313.2" fill="none" stroke="#F58518" stroke-width="3"/>
<circle cx="191.4" cy="398.8" r="4" fill="#F58518"/>
<circle cx="292.9" cy="344.0" r="4" fill="#F58518"/>
<circle cx="394.3" cy="386.8" r="4" fill="#F58518"/>
<circle cx="495.7" cy="379.7" r="4" fill="#F58518"/>
<circle cx="597.1" cy="371.4" r="4" fill="#F58518"/>
<circle cx="698.6" cy="350.2" r="4" fill="#F58518"/>
<circle cx="800.0" cy="313.2" r="4" fill="#F58518"/>
<polyline points="495.7,220.6 597.1,223.1 698.6,202.4 800.0,106.8" fill="none" stroke="#54A24B" stroke-width="3"/>
<circle cx="495.7" cy="220.6" r="4" fill="#54A24B"/>
<circle cx="597.1" cy="223.1" r="4" fill="#54A24B"/>
<circle cx="698.6" cy="202.4" r="4" fill="#54A24B"/>
<circle cx="800.0" cy="106.8" r="4" fill="#54A24B"/>
<polyline points="191.4,474.4 292.9,474.3 394.3,473.5 495.7,474.9 800.0,467.3" fill="none" stroke="#B279A2" stroke-width="3"/>
<circle cx="191.4" cy="474.4" r="4" fill="#B279A2"/>
<circle cx="292.9" cy="474.3" r="4" fill="#B279A2"/>
<circle cx="394.3" cy="473.5" r="4" fill="#B279A2"/>
<circle cx="495.7" cy="474.9" r="4" fill="#B279A2"/>
<circle cx="800.0" cy="467.3" r="4" fill="#B279A2"/>
<rect x="835" y="80" width="16" height="16" fill="#4C78A8"/>
<text x="858.0" y="93.0" font-family="Arial, sans-serif" font-size="12" text-anchor="start" font-weight="400" fill="#222">科创板</text>
<rect x="835" y="108" width="16" height="16" fill="#F58518"/>
<text x="858.0" y="121.0" font-family="Arial, sans-serif" font-size="12" text-anchor="start" font-weight="400" fill="#222">创业板</text>
<rect x="835" y="136" width="16" height="16" fill="#54A24B"/>
<text x="858.0" y="149.0" font-family="Arial, sans-serif" font-size="12" text-anchor="start" font-weight="400" fill="#222">主板</text>
<rect x="835" y="164" width="16" height="16" fill="#B279A2"/>
<text x="858.0" y="177.0" font-family="Arial, sans-serif" font-size="12" text-anchor="start" font-weight="400" fill="#222">北交所</text>
<text x="490.0" y="540.0" font-family="Arial, sans-serif" font-size="12" text-anchor="middle" font-weight="400" fill="#222">listing year</text>
<text x="24.0" y="272.5" font-family="Arial, sans-serif" font-size="12" text-anchor="middle" font-weight="400" fill="#222">median ratio</text>
</svg>